<svg width="20" height="20" fill="none" xmlns="http://www.w3.org/2000/svg"><path d="M6.43778 12.2972c.38563-.3085.94719-.2483 1.25896.1331.00181.0021.0066.0076.01437.0161.0169.0185.04759.0508.09195.0923.08907.0835.23069.2023.42395.3231.38295.2394.96991.4882 1.77299.4882.8031 0 1.3901-.2488 1.773-.4882.1933-.1208.3349-.2396.424-.3231.0443-.0415.075-.0738.0919-.0923l.0119-.0133.0025-.0028c.3118-.3815.8733-.4416 1.2589-.1331.3882.3105.4511.8769.1406 1.265L13 13l.7028.5622-.0011.0014-.0013.0015-.0027.0034-.0067.0082-.0181.0216c-.0142.0166-.0327.0378-.0555.0627-.0456.0499-.1087.1153-.1893.1909-.161.1509-.3943.3446-.7011.5363-.617.3857-1.5301.7618-2.727.7618-1.1969 0-2.10994-.3761-2.72699-.7618-.30674-.1917-.54012-.3854-.70105-.5363-.08064-.0756-.14371-.141-.1893-.1909-.02282-.0249-.04133-.0461-.05555-.0627l-.01813-.0216-.00667-.0082-.00274-.0034-.00122-.0015s-.00112-.0014.70166-.5636l-.70278.5622c-.31051-.3881-.24758-.9545.14055-1.265zM8.25 8.25c0 .69036-.55964 1.25-1.25 1.25s-1.25-.55964-1.25-1.25S6.30964 7 7 7s1.25.55964 1.25 1.25zM13 9.5c.6904 0 1.25-.55964 1.25-1.25S13.6904 7 13 7s-1.25.55964-1.25 1.25S12.3096 9.5 13 9.5z" fill="#C5D0DB"/><path fill-rule="evenodd" clip-rule="evenodd" d="M10 .100006C4.53239.100006.100006 4.53239.100006 10c0 5.4676 4.432384 9.9 9.899994 9.9 5.4676 0 9.9-4.4324 9.9-9.9 0-5.46761-4.4324-9.899994-9.9-9.899994zM1.90001 10c0-4.4735 3.62649-8.09999 8.09999-8.09999S18.1 5.5265 18.1 10s-3.6265 8.1-8.1 8.1-8.09999-3.6265-8.09999-8.1z" fill="#C5D0DB"/></svg>