<svg width="20" height="20" fill="none" xmlns="http://www.w3.org/2000/svg"><path d="M10.4 6.00001c0-.49706-.40294-.9-.89999-.9-.49706 0-.9.40294-.9.9V10.5c0 .3752.23271.711.58399.8427l4 1.5c.4654.1745.9842-.0613 1.1587-.5267.1745-.4654-.0613-.9842-.5267-1.1587L10.4 9.87631v-3.8763z" fill="#99A2AD"/><path fill-rule="evenodd" clip-rule="evenodd" d="M10 .100006C4.53239.100006.100006 4.53239.100006 10c0 5.4676 4.432384 9.9 9.899994 9.9 5.4676 0 9.9-4.4324 9.9-9.9 0-5.46761-4.4324-9.899994-9.9-9.899994zM1.90001 10c0-4.4735 3.62649-8.09999 8.09999-8.09999S18.1 5.5265 18.1 10s-3.6265 8.1-8.1 8.1-8.09999-3.6265-8.09999-8.1z" fill="#99A2AD"/></svg>